<svg id="cart" xmlns="http://www.w3.org/2000/svg" width="26.136" height="24.598" viewBox="0 0 26.136 24.598">
  <path id="Path_25" data-name="Path 25" d="M26.612,25.746H9.7a.949.949,0,0,1-.615-.307.722.722,0,0,1-.077-.692l1.461-3.69L9.009,7.3H4.32V5.76H9.7a.817.817,0,0,1,.769.692l1.537,14.605a.693.693,0,0,1-.077.384l-1.076,2.767H27.381Z" transform="translate(-4.32 -5.76)" fill="#262626"/>
  <path id="Path_26" data-name="Path 26" d="M11,21.708l-.307-1.537,17.834-3.69v-6.3H10.08V8.64H29.3a.726.726,0,0,1,.769.769V17.1a.749.749,0,0,1-.615.769Z" transform="translate(-3.93 -5.565)" fill="#262626"/>
  <path id="Path_27" data-name="Path 27" d="M26.115,29.19a3.075,3.075,0,1,1,3.075-3.075A3.084,3.084,0,0,1,26.115,29.19Zm0-4.612a1.537,1.537,0,1,0,1.537,1.537A1.542,1.542,0,0,0,26.115,24.577Z" transform="translate(-3.054 -4.591)" fill="#262626"/>
  <path id="Path_28" data-name="Path 28" d="M8.835,29.19a3.075,3.075,0,1,1,3.075-3.075A3.084,3.084,0,0,1,8.835,29.19Zm0-4.612a1.537,1.537,0,1,0,1.537,1.537A1.542,1.542,0,0,0,8.835,24.577Z" transform="translate(-4.223 -4.591)" fill="#262626"/>
</svg>
