<svg xmlns="http://www.w3.org/2000/svg" width="18.709" height="16.036" viewBox="0 0 18.709 16.036"><g id="monitor" transform="translate(-2.25 -4.5)" fill="#707070"><path id="Path_77" data-name="Path 77" d="M20.486 4.5H2.722a.475.475 0 00-.472.463v11.1a.47.47 0 00.472.463h17.765a.475.475 0 00.472-.463v-11.1a.472.472 0 00-.472-.463zm-.864 10.691H3.586V5.836h16.036z"/><path id="Path_78" data-name="Path 78" d="M17.653 29.216c1.169-.021 1.733-.163 1.211-.522s-1.19-.639-1.211-.94c-.012-.154-.071-1.879-.071-1.879H13.84s-.062 1.725-.071 1.879c-.021.3-.689.576-1.211.94s.042.5 1.211.522h3.884z" transform="translate(-4.106 -8.68)"/></g></svg>