<svg xmlns="http://www.w3.org/2000/svg" width="24.75" height="24.75" viewBox="0 0 24.75 24.75">
  <path id="Path_335" data-name="Path 335" d="M3.625,18.9a3.629,3.629,0,0,0,3.625-3.625L4.581,7.15l5.9-.975a2.172,2.172,0,0,0,1.168.991V20.351H7.3v.725A2.22,2.22,0,0,1,5.124,23.3H4.4v1.45H20.351V23.3h-.725a2.22,2.22,0,0,1-2.175-2.224v-.725H13.1V7.166A2.172,2.172,0,0,0,14.512,5.5l5.543-.915L17.5,12.375a3.625,3.625,0,1,0,7.251,0L21.616,2.857,14.268,4.073A2.172,2.172,0,0,0,13.1,3.082V0H11.65V3.082a2.172,2.172,0,0,0-1.412,1.663L3.076,5.931,0,15.275A3.629,3.629,0,0,0,3.625,18.9ZM23.019,11.65H19.23l1.894-5.683ZM3.625,8.867,5.52,14.55H1.731Z" transform="translate(0 0)"/>
</svg>
