<svg xmlns="http://www.w3.org/2000/svg" width="168" height="49.459" viewBox="0 0 168 49.459">
  <g id="logo" transform="translate(-60.5 -32.3)">
    <g id="Group_13" data-name="Group 13" transform="translate(116.021 44.554)">
      <path id="Path_9" data-name="Path 9" d="M496.8,104.173h24.873V89.725H509.289v4.1h8.152v6.14H500.928V83.3h20.745v-4H496.8Z" transform="translate(-438.327 -79.274)"/>
      <path id="Path_10" data-name="Path 10" d="M384.8,104.2h24.847V79.3H384.8Zm4.128-20.719h16.513V99.993H388.928Z" transform="translate(-355.589 -79.274)"/>
      <path id="Path_11" data-name="Path 11" d="M608.5,79.3v24.9h24.821V79.3Zm20.641,20.693H612.6V83.454h16.539Z" transform="translate(-520.842 -79.274)"/>
      <path id="Path_12" data-name="Path 12" d="M277,79.2h-4v24.926h24.821V99.971h-20.85C277,92.969,277,86.1,277,79.2Z" transform="translate(-273 -79.2)"/>
    </g>
    <g id="Group_14" data-name="Group 14" transform="translate(60.5 32.3)">
      <path id="Path_13" data-name="Path 13" d="M122.929,145.677c.523.549,1.071,1.123,1.907,2.012,1.228-1.411,2.351-2.743,3.475-4.05,1.071,1.071,1.986,1.96,2.822,2.77-2.534,2.587-5.043,5.147-7.446,7.577-2.534-2.508-5.095-5.016-7.812-7.682,3.161-3.109,6.375-6.244,9.458-9.275-.627-.732-1.15-1.333-1.568-1.829L112.4,146.565c3.71,3.684,7.472,7.446,11.235,11.209l11.287-11.287c-2.116-2.142-4.285-4.311-6.323-6.375C126.718,141.967,124.837,143.8,122.929,145.677Z" transform="translate(-98.84 -108.315)" fill="#da4b4b"/>
      <path id="Path_14" data-name="Path 14" d="M134.891,43.483c-3.71-3.71-7.472-7.5-11.13-11.183C120,36.036,116.184,39.825,112.5,43.509c3.71,3.736,7.472,7.5,11.183,11.235C127.419,51.007,131.207,47.193,134.891,43.483Zm-18.655.1c2.482-2.456,5.043-4.964,7.551-7.446,2.43,2.43,4.938,4.912,7.368,7.342-2.508,2.508-5.016,5.043-7.525,7.551C121.174,48.551,118.666,46.043,116.236,43.587Z" transform="translate(-98.914 -32.3)" fill="#da4b4b"/>
      <path id="Path_15" data-name="Path 15" d="M175.513,84.2c-3.736,3.736-7.551,7.5-11.313,11.261,3.684,3.684,7.472,7.446,11.078,11.052,3.762-3.71,7.6-7.472,11.365-11.183C182.881,91.594,179.093,87.806,175.513,84.2Zm.078,18.864c-2.639-2.691-5.147-5.226-7.6-7.76q3.645-3.566,7.681-7.525c2.247,2.3,4.677,4.729,7.028,7.185a1.007,1.007,0,0,1-.1.967C180.295,98.309,177.917,100.686,175.592,103.064Z" transform="translate(-137.106 -70.64)" fill="#da4b4b"/>
      <path id="Path_16" data-name="Path 16" d="M81.167,119.1c-3.214,3.292-6.3,6.454-9.51,9.772l-9.38-9.615c-.732.758-1.306,1.306-1.777,1.8,3.789,3.815,7.6,7.6,11.313,11.313L83.1,121.086C82.578,120.563,82,119.988,81.167,119.1Z" transform="translate(-60.5 -96.421)" fill="#da4b4b"/>
    </g>
  </g>
</svg>
