<svg xmlns="http://www.w3.org/2000/svg" width="16.936" height="17" viewBox="0 0 16.936 17">
  <g id="home-line" transform="translate(-2.06 -1.999)">
    <path id="Path_33" data-name="Path 33" d="M18.873,10.122,10.9,2.154a.531.531,0,0,0-.749,0L2.187,10.122a.531.531,0,0,0,.749.749L10.528,3.28l7.591,7.6a.531.531,0,0,0,.749-.749Z" transform="translate(0 0)" fill="#fff"/>
    <path id="Path_34" data-name="Path 34" d="M17.687,25.325H15.031V20.012H9.719v5.312H7.062V17.887L6,18.95v6.375a1.062,1.062,0,0,0,1.062,1.062h3.719V21.075h3.187v5.312h3.719a1.062,1.062,0,0,0,1.062-1.062v-6.5L17.687,17.76Z" transform="translate(-1.847 -7.388)" fill="#fff"/>
  </g>
</svg>
