<svg xmlns="http://www.w3.org/2000/svg" width="168" height="49.459" viewBox="0 0 168 49.459"><g id="logo" transform="translate(-60.5 -32.3)"><g id="Group_13" data-name="Group 13" transform="translate(116.021 44.554)"><path id="Path_9" data-name="Path 9" d="M496.8 104.173h24.873V89.725h-12.384v4.1h8.152v6.14h-16.513V83.3h20.745v-4H496.8z" transform="translate(-438.327 -79.274)"/><path id="Path_10" data-name="Path 10" d="M384.8 104.2h24.847V79.3H384.8zm4.128-20.719h16.513v16.512h-16.513z" transform="translate(-355.589 -79.274)"/><path id="Path_11" data-name="Path 11" d="M608.5 79.3v24.9h24.821V79.3zm20.641 20.693H612.6V83.454h16.539z" transform="translate(-520.842 -79.274)"/><path id="Path_12" data-name="Path 12" d="M277 79.2h-4v24.926h24.821v-4.155h-20.85C277 92.969 277 86.1 277 79.2z" transform="translate(-273 -79.2)"/></g><g id="Group_14" data-name="Group 14" transform="translate(60.5 32.3)" fill="#da4b4b"><path id="Path_13" data-name="Path 13" d="M122.929 145.677c.523.549 1.071 1.123 1.907 2.012 1.228-1.411 2.351-2.743 3.475-4.05a239.74 239.74 0 002.822 2.77 2264.536 2264.536 0 01-7.446 7.577c-2.534-2.508-5.095-5.016-7.812-7.682 3.161-3.109 6.375-6.244 9.458-9.275-.627-.732-1.15-1.333-1.568-1.829L112.4 146.565c3.71 3.684 7.472 7.446 11.235 11.209l11.287-11.287c-2.116-2.142-4.285-4.311-6.323-6.375-1.881 1.855-3.762 3.688-5.67 5.565z" transform="translate(-98.84 -108.315)"/><path id="Path_14" data-name="Path 14" d="M134.891 43.483c-3.71-3.71-7.472-7.5-11.13-11.183-3.761 3.736-7.577 7.525-11.261 11.209 3.71 3.736 7.472 7.5 11.183 11.235 3.736-3.737 7.524-7.551 11.208-11.261zm-18.655.1c2.482-2.456 5.043-4.964 7.551-7.446 2.43 2.43 4.938 4.912 7.368 7.342-2.508 2.508-5.016 5.043-7.525 7.551-2.456-2.479-4.964-4.987-7.394-7.443z" transform="translate(-98.914 -32.3)"/><path id="Path_15" data-name="Path 15" d="M175.513 84.2c-3.736 3.736-7.551 7.5-11.313 11.261 3.684 3.684 7.472 7.446 11.078 11.052 3.762-3.71 7.6-7.472 11.365-11.183-3.762-3.736-7.55-7.524-11.13-11.13zm.078 18.864c-2.639-2.691-5.147-5.226-7.6-7.76q3.645-3.566 7.681-7.525c2.247 2.3 4.677 4.729 7.028 7.185a1.007 1.007 0 01-.1.967c-2.305 2.378-4.683 4.755-7.008 7.133z" transform="translate(-137.106 -70.64)"/><path id="Path_16" data-name="Path 16" d="M81.167 119.1a2951.32 2951.32 0 00-9.51 9.772l-9.38-9.615c-.732.758-1.306 1.306-1.777 1.8 3.789 3.815 7.6 7.6 11.313 11.313L83.1 121.086c-.522-.523-1.1-1.098-1.933-1.986z" transform="translate(-60.5 -96.421)"/></g></g></svg>