<svg id="search" xmlns="http://www.w3.org/2000/svg" width="22.001" height="22" viewBox="0 0 22.001 22">
  <path id="Path_31" data-name="Path 31" d="M23.24,23.238a1.375,1.375,0,0,1,1.946,0l5.294,5.294a1.375,1.375,0,1,1-1.944,1.946l-5.294-5.294a1.375,1.375,0,0,1,0-1.946Z" transform="translate(-8.881 -8.88)" fill="#262626" fill-rule="evenodd"/>
  <path id="Path_32" data-name="Path 32" d="M8.938,16.5A7.563,7.563,0,1,0,1.375,8.938,7.563,7.563,0,0,0,8.938,16.5Zm8.938-7.563A8.938,8.938,0,1,1,8.938,0a8.938,8.938,0,0,1,8.938,8.938Z" fill="#262626" fill-rule="evenodd"/>
</svg>
