<svg xmlns="http://www.w3.org/2000/svg" width="16.936" height="17" viewBox="0 0 16.936 17"><g id="home-line" transform="translate(-2.06 -1.999)" fill="#fff"><path id="Path_33" data-name="Path 33" d="M18.873 10.122L10.9 2.154a.531.531 0 00-.749 0l-7.964 7.968a.531.531 0 00.749.749l7.592-7.591 7.591 7.6a.531.531 0 00.749-.749z"/><path id="Path_34" data-name="Path 34" d="M17.687 25.325h-2.656v-5.313H9.719v5.312H7.062v-7.437L6 18.95v6.375a1.062 1.062 0 001.062 1.062h3.719v-5.312h3.187v5.312h3.719a1.062 1.062 0 001.062-1.062v-6.5l-1.062-1.065z" transform="translate(-1.847 -7.388)"/></g></svg>