<svg xmlns="http://www.w3.org/2000/svg" width="24.75" height="24.75" viewBox="0 0 24.75 24.75"><path id="Path_335" data-name="Path 335" d="M3.625 18.9a3.629 3.629 0 003.625-3.625L4.581 7.15l5.9-.975a2.172 2.172 0 001.168.991v13.185H7.3v.725A2.22 2.22 0 015.124 23.3H4.4v1.45h15.951V23.3h-.725a2.22 2.22 0 01-2.175-2.224v-.725H13.1V7.166A2.172 2.172 0 0014.512 5.5l5.543-.915-2.555 7.79a3.625 3.625 0 107.251 0l-3.135-9.518-7.348 1.216a2.172 2.172 0 00-1.168-.991V0h-1.45v3.082a2.172 2.172 0 00-1.412 1.663L3.076 5.931 0 15.275A3.629 3.629 0 003.625 18.9zm19.394-7.25H19.23l1.894-5.683zM3.625 8.867L5.52 14.55H1.731z"/></svg>